<?xml version="1.0" encoding="UTF-8" standalone="no"?>
<!-- Created with Inkscape (http://www.inkscape.org/) -->

<svg
   xmlns:dc="http://purl.org/dc/elements/1.1/"
   xmlns:cc="http://creativecommons.org/ns#"
   xmlns:rdf="http://www.w3.org/1999/02/22-rdf-syntax-ns#"
   xmlns:svg="http://www.w3.org/2000/svg"
   xmlns="http://www.w3.org/2000/svg"
   xmlns:sodipodi="http://sodipodi.sourceforge.net/DTD/sodipodi-0.dtd"
   xmlns:inkscape="http://www.inkscape.org/namespaces/inkscape"
   id="svg2"
   version="1.1"
   inkscape:version="0.91 r13725"
   xml:space="preserve"
   width="271.01251"
   height="95.362503"
   viewBox="0 0 271.01251 95.362503"
   sodipodi:docname="uga-extension-logo.svg"><metadata
     id="metadata8"><rdf:RDF><cc:Work
         rdf:about=""><dc:format>image/svg+xml</dc:format><dc:type
           rdf:resource="http://purl.org/dc/dcmitype/StillImage" /><dc:title></dc:title></cc:Work></rdf:RDF></metadata><defs
     id="defs6" /><sodipodi:namedview
     pagecolor="#ffffff"
     bordercolor="#666666"
     borderopacity="1"
     objecttolerance="10"
     gridtolerance="10"
     guidetolerance="10"
     inkscape:pageopacity="0"
     inkscape:pageshadow="2"
     inkscape:window-width="2560"
     inkscape:window-height="1385"
     id="namedview4"
     showgrid="false"
     inkscape:zoom="1.3431114"
     inkscape:cx="135.50626"
     inkscape:cy="47.681252"
     inkscape:window-x="1920"
     inkscape:window-y="27"
     inkscape:window-maximized="1"
     inkscape:current-layer="g10" /><g
     id="g10"
     inkscape:groupmode="layer"
     inkscape:label="ink_ext_XXXXXX"
     transform="matrix(1.25,0,0,-1.25,0,95.3625)"><g
       id="g12"
       transform="scale(0.1,0.1)"><path
         d="m 710.168,381.445 c 0,-181.562 -147.18,-328.7497 -328.73,-328.7497 -181.575,0 -328.7427,147.1877 -328.7427,328.7497 0,181.543 147.1677,328.731 328.7427,328.731 181.55,0 328.73,-147.188 328.73,-328.731"
         style="fill:#231f20;fill-opacity:1;fill-rule:nonzero;stroke:none"
         id="path14"
         inkscape:connector-curvature="0" /><path
         d="m 275.281,220.176 0.664,0 c -4.019,0.664 -8.648,6.152 -8.648,8.926 l -0.695,0 0,248.007 4.003,0 0,14.063 c 1.321,20.625 10,22.734 10,22.734 l 0,4.121 -2.667,0 c 0,0.274 0.031,0.469 0.05,0.703 l 73.875,0 c 0.41,-1.386 0.649,-3.046 0.649,-5.195 l -2.649,0 0,-4.082 c 0,0 8.606,-1.348 9.942,-22.461 l 0,-12.187 3.965,0 0,-245.352 c -0.657,-3.398 -4.637,-8.144 -8.614,-9.551 l 0,-11.504 -79.875,0 0,11.778 z M 378.77,625.977 c 54.46,0 102.07,-35.332 120.957,-86.036 l -20.137,0 0,0.137 -222.078,0 c 18.711,50.801 66.043,85.899 121.258,85.899 z m 109.5,-148.106 0,-248.984 c 0,-3.418 -4.676,-8.223 -8.68,-9.629 l 0,-10.86 -78.692,0 0,11.504 c -3.972,1.407 -7.968,6.153 -8.64,9.551 l 0,245.352 3.308,0 0,12.187 c 1.985,21.113 10.625,22.461 10.625,22.461 l 0,4.082 -3.332,0 c 0.121,2.129 0.434,3.809 0.879,5.195 l 73.75,0 c 0.024,-0.488 0.09,-1.035 0.11,-1.542 l -3.34,0 0,-4.141 c 0,0 8.691,-1.387 10.703,-22.774 l 0,-12.402 3.309,0 z m 53.418,-299.082 0,15.84 -6.688,0 0,13.769 -9.348,0 0,10.86 c -3.992,1.406 -7.996,6.211 -8.679,9.629 l 0,248.984 3.34,0 0,12.402 c 2.031,21.387 10.71,22.774 10.71,22.774 l 0,4.141 -2.683,0 c 0,12.421 8.015,11.015 8.015,11.015 l 0,11.738 -18.906,0 c -19.676,60.547 -75,103.262 -138.679,103.262 -64.582,0 -119.493,-42.48 -139.004,-103.066 l -20.586,0 0,-11.758 c 0,0 7.351,2.09 8.015,-10.352 l -2.675,0 0,-4.121 c 0,0 8.039,-2.109 10.019,-22.734 l 0,-14.063 3.996,0 0,-248.007 c -0.664,-2.774 -4.656,-8.262 -9.316,-8.926 l 0,-11.778 -8.723,0 0,-13.769 -5.976,0 0,-15.84 -6.012,0 0,-13.828 339.168,0 0,13.828 -5.988,0"
         style="fill:#ffffff;fill-opacity:1;fill-rule:nonzero;stroke:none"
         id="path16"
         inkscape:connector-curvature="0" /><path
         d="m 578.953,163.379 c 0.59,0.059 1.106,0.156 1.543,0.332 0.442,0.176 0.805,0.449 1.074,0.82 0.266,0.41 0.442,0.918 0.442,1.582 0,0.586 -0.125,1.016 -0.34,1.367 -0.207,0.352 -0.5,0.625 -0.852,0.84 -0.359,0.196 -0.761,0.352 -1.191,0.41 -0.457,0.098 -0.93,0.118 -1.426,0.118 l -3.586,0 0,-5.489 2.59,0 c 0.598,0 1.191,0 1.746,0.02 z m -6.265,-8.75 0,15.898 6.082,0 c 1.757,0 3.117,-0.39 3.906,-1.152 0.84,-0.742 1.269,-1.816 1.269,-3.262 0,-0.683 -0.129,-1.289 -0.324,-1.797 -0.215,-0.527 -0.496,-0.957 -0.855,-1.308 -0.371,-0.352 -0.801,-0.645 -1.274,-0.86 -0.496,-0.214 -0.996,-0.371 -1.543,-0.468 l 4.746,-7.051 -2.3,0 -4.485,7.051 -3.293,0 0,-7.051 -1.929,0 z m 0.32,18.828 c -1.399,-0.625 -2.649,-1.465 -3.692,-2.539 -1.015,-1.035 -1.828,-2.285 -2.39,-3.73 -0.598,-1.426 -0.871,-2.969 -0.871,-4.629 0,-1.661 0.273,-3.184 0.871,-4.61 0.562,-1.445 1.375,-2.676 2.39,-3.75 1.043,-1.054 2.293,-1.914 3.692,-2.539 1.426,-0.625 2.988,-0.898 4.66,-0.898 1.641,0 3.199,0.273 4.598,0.898 1.394,0.625 2.644,1.485 3.703,2.539 1.023,1.074 1.824,2.305 2.422,3.75 0.613,1.426 0.906,2.949 0.906,4.61 0,1.66 -0.293,3.203 -0.906,4.629 -0.598,1.445 -1.399,2.695 -2.422,3.73 -1.059,1.074 -2.309,1.914 -3.703,2.539 -1.399,0.606 -2.957,0.898 -4.598,0.898 -1.672,0 -3.234,-0.292 -4.66,-0.898 z m 10.097,1.816 c 1.653,-0.722 3.125,-1.699 4.368,-2.929 1.218,-1.231 2.207,-2.715 2.871,-4.375 0.73,-1.699 1.051,-3.496 1.051,-5.41 0,-1.954 -0.321,-3.75 -1.051,-5.43 -0.664,-1.641 -1.653,-3.086 -2.871,-4.336 -1.243,-1.25 -2.715,-2.207 -4.368,-2.891 -1.699,-0.742 -3.476,-1.093 -5.437,-1.093 -1.953,0 -3.781,0.351 -5.441,1.093 -1.668,0.684 -3.125,1.641 -4.368,2.891 -1.226,1.25 -2.195,2.695 -2.91,4.336 -0.703,1.68 -1.054,3.476 -1.054,5.43 0,1.914 0.351,3.711 1.054,5.41 0.715,1.66 1.684,3.144 2.91,4.375 1.243,1.23 2.7,2.207 4.368,2.929 1.66,0.704 3.488,1.055 5.441,1.055 1.961,0 3.738,-0.351 5.437,-1.055"
         style="fill:#ffffff;fill-opacity:1;fill-rule:nonzero;stroke:none"
         id="path18"
         inkscape:connector-curvature="0" /><path
         d="M 756.594,381.445 C 756.594,174.219 588.633,6.25 381.438,6.25 174.23,6.25 6.25,174.219 6.25,381.445 c 0,207.188 167.98,375.157 375.188,375.157 207.195,0 375.156,-167.969 375.156,-375.157 z"
         style="fill:none;stroke:#c41036;stroke-width:12.5;stroke-linecap:butt;stroke-linejoin:miter;stroke-miterlimit:4;stroke-dasharray:none;stroke-opacity:1"
         id="path20"
         inkscape:connector-curvature="0" /><path
         d="m 1068.91,696.859 187.19,0 0,-16.8 c -57.6,-15 -57.6,-23.993 -62.4,-124.188 l -4.2,-90 c -1.8,-47.394 -3,-101.398 -37.8,-137.394 -35.4,-37.196 -90,-49.805 -139.8,-49.805 -46.795,0 -103.189,12.012 -138.587,43.808 -42,37.793 -36,95.997 -36,146.387 l 0,94.801 c 0,108.594 -7.801,104.395 -79.2,116.391 l 0,16.8 237.59,0 0,-16.8 C 912.91,672.863 916.508,645.266 916.508,563.668 l 0,-84 c 0,-34.793 -1.801,-82.195 17.398,-112.188 24.004,-36.601 72.594,-51.003 114.604,-51.003 98.99,0 113.99,72 111.59,146.394 l -4.2,145.195 c -1.8,64.196 -30.6,60.598 -86.99,71.993 l 0,16.8"
         style="fill:#231f20;fill-opacity:1;fill-rule:nonzero;stroke:none"
         id="path22"
         inkscape:connector-curvature="0" /><path
         d="m 1647.29,335.676 32.41,0 0,-13.801 c -63.62,-26.395 -132.6,-43.203 -201.6,-43.203 -124.2,0 -236.99,78.008 -236.99,207.598 0,144.593 126.6,220.793 256.79,220.793 53.4,0 103.18,-12.598 152.99,-31.797 l 0,-114.602 -17.99,0 c -18.01,71.399 -66.6,118.801 -145.19,118.801 -96,0 -149.4,-83.399 -149.4,-171.594 0,-110.398 71.99,-201.601 185.39,-201.601 42.6,0 40.8,10.207 44.4,35.41 l 0,31.191 c 0,78 -4.2,83.399 -87,94.801 l 0,16.797 211.78,0 0,-16.797 c -40.78,-10.199 -45.59,-17.399 -45.59,-59.399 l 0,-72.597"
         style="fill:#231f20;fill-opacity:1;fill-rule:nonzero;stroke:none"
         id="path24"
         inkscape:connector-curvature="0" /><path
         d="m 1965.3,485.668 -54.61,139.195 -51.6,-139.195 106.21,0 z m -117.59,-36 -10.81,-30.594 c -35.99,-103.801 -11.4,-105.597 54.01,-113.398 l 0,-16.797 -186.6,0 0,16.797 c 32.4,10.203 46.19,11.394 60,43.203 l 39,91.191 93.59,218.391 -5.99,18 c 23.4,8.402 42.6,25.801 56.99,46.195 l 11.41,0 112.18,-292.187 c 39.01,-98.399 34.81,-105.594 96.61,-124.793 l 0,-16.797 -204.01,0 0,16.797 c 58.2,10.203 61.8,21.601 28.81,106.199 l -14.39,37.793 -130.8,0"
         style="fill:#231f20;fill-opacity:1;fill-rule:nonzero;stroke:none"
         id="path26"
         inkscape:connector-curvature="0" /><path
         d="m 941.395,135.234 c -5.204,19.922 -17.762,29.883 -37.684,29.883 -4.539,0 -8.801,-0.691 -12.781,-2.07 -3.989,-1.387 -7.617,-3.379 -10.879,-5.977 -3.266,-2.605 -6.059,-5.73 -8.379,-9.382 -2.324,-3.653 -4.106,-7.805 -5.317,-12.454 l 75.04,0 z m 38.351,-30.546 -115.879,0 c 0.996,-13.2817 5.313,-23.8482 12.949,-31.7075 7.637,-7.7461 17.43,-11.6211 29.383,-11.6211 9.297,0 16.985,2.2148 23.078,6.6406 5.977,4.4219 12.786,12.6172 20.418,24.5703 l 31.543,-17.5976 c -4.871,-8.3008 -10.015,-15.4219 -15.437,-21.3399 -5.43,-5.918 -11.238,-10.7812 -17.434,-14.6094 -6.199,-3.8086 -12.898,-6.6015 -20.086,-8.3789 -7.195,-1.7656 -15,-2.6562 -23.41,-2.6562 -24.129,0 -43.492,7.7461 -58.101,23.2422 -14.614,15.6054 -21.915,36.3008 -21.915,62.0895 0,25.567 7.079,46.262 21.25,62.09 14.278,15.606 33.204,23.41 56.778,23.41 23.789,0 42.605,-7.59 56.441,-22.746 13.723,-15.058 20.586,-35.918 20.586,-62.586 l -0.164,-8.8"
         style="fill:#c41036;fill-opacity:1;fill-rule:nonzero;stroke:none"
         id="path28"
         inkscape:connector-curvature="0" /><path
         d="m 1052.02,120.129 -58.102,74.207 44.492,0 36.02,-47.148 36.69,47.148 45.82,0 -59.76,-74.207 69.23,-87.4923 -44.5,0 -47.48,60.4297 -48.64,-60.4297 -45.653,0 71.883,87.4923"
         style="fill:#c41036;fill-opacity:1;fill-rule:nonzero;stroke:none"
         id="path30"
         inkscape:connector-curvature="0" /><path
         d="m 1221.66,159.473 0,-126.8363 -37.36,0 0,126.8363 -15.94,0 0,34.863 15.94,0 0,59.269 37.36,0 0,-59.269 29.04,0 0,-34.863 -29.04,0"
         style="fill:#c41036;fill-opacity:1;fill-rule:nonzero;stroke:none"
         id="path32"
         inkscape:connector-curvature="0" /><path
         d="m 1379.5,135.234 c -5.2,19.922 -17.76,29.883 -37.68,29.883 -4.54,0 -8.8,-0.691 -12.79,-2.07 -3.98,-1.387 -7.6,-3.379 -10.87,-5.977 -3.27,-2.605 -6.06,-5.73 -8.38,-9.382 -2.33,-3.653 -4.1,-7.805 -5.32,-12.454 l 75.04,0 z m 38.35,-30.546 -115.88,0 c 1,-13.2817 5.32,-23.8482 12.95,-31.7075 7.64,-7.7461 17.43,-11.6211 29.39,-11.6211 9.29,0 16.98,2.2148 23.07,6.6406 5.98,4.4219 12.79,12.6172 20.42,24.5703 l 31.55,-17.5976 c -4.88,-8.3008 -10.02,-15.4219 -15.44,-21.3399 -5.43,-5.918 -11.23,-10.7812 -17.44,-14.6094 -6.2,-3.8086 -12.9,-6.6015 -20.08,-8.3789 -7.2,-1.7656 -15,-2.6562 -23.41,-2.6562 -24.13,0 -43.5,7.7461 -58.11,23.2422 -14.61,15.6054 -21.91,36.3008 -21.91,62.0895 0,25.567 7.08,46.262 21.25,62.09 14.28,15.606 33.2,23.41 56.78,23.41 23.8,0 42.6,-7.59 56.44,-22.746 13.72,-15.058 20.59,-35.918 20.59,-62.586 l -0.17,-8.8"
         style="fill:#c41036;fill-opacity:1;fill-rule:nonzero;stroke:none"
         id="path34"
         inkscape:connector-curvature="0" /><path
         d="m 1450.2,194.336 37.51,0 0,-14.941 c 13.06,12.949 27.78,19.425 44.17,19.425 18.8,0 33.47,-5.929 43.99,-17.765 9.07,-10.078 13.61,-26.504 13.61,-49.305 l 0,-99.1133 -37.52,0 0,90.1953 c 0,15.918 -2.21,26.914 -6.64,33 -4.31,6.191 -12.18,9.285 -23.57,9.285 -12.4,0 -21.2,-4.09 -26.4,-12.265 -5.1,-8.075 -7.64,-22.168 -7.64,-42.286 l 0,-77.9293 -37.51,0 0,161.6993"
         style="fill:#c41036;fill-opacity:1;fill-rule:nonzero;stroke:none"
         id="path36"
         inkscape:connector-curvature="0" /><path
         d="m 1722.09,166.777 -30.88,-16.433 c -4.87,9.851 -10.9,14.773 -18.09,14.773 -3.43,0 -6.37,-1.133 -8.8,-3.398 -2.44,-2.266 -3.66,-5.176 -3.66,-8.711 0,-6.192 7.2,-12.324 21.59,-18.399 19.81,-8.515 33.14,-16.367 40.01,-23.554 6.86,-7.176 10.29,-16.8558 10.29,-29.0042 0,-15.5938 -5.75,-28.6328 -17.27,-39.1406 -11.18,-9.9493 -24.67,-14.9219 -40.5,-14.9219 -27.12,0 -46.32,13.2226 -57.61,39.6797 l 31.87,14.7734 c 4.43,-7.7539 7.81,-12.6758 10.13,-14.7734 4.54,-4.211 9.96,-6.3086 16.27,-6.3086 12.62,0 18.93,5.75 18.93,17.2656 0,6.6406 -4.88,12.8398 -14.61,18.5938 -3.76,1.8828 -7.53,3.6992 -11.29,5.4762 -3.76,1.77 -7.58,3.594 -11.46,5.481 -10.85,5.312 -18.48,10.625 -22.91,15.937 -5.64,6.746 -8.47,15.438 -8.47,26.063 0,14.054 4.82,25.676 14.45,34.863 9.85,9.18 21.8,13.781 35.86,13.781 20.69,0 36.08,-10.683 46.15,-32.043"
         style="fill:#c41036;fill-opacity:1;fill-rule:nonzero;stroke:none"
         id="path38"
         inkscape:connector-curvature="0" /><path
         d="m 1864.3,113.984 c 0,-16.1598 4.31,-28.9449 12.95,-38.3473 8.85,-9.5234 20.52,-14.2773 35.03,-14.2773 14.6,0 26.28,4.6953 35.02,14.1094 8.74,9.4062 13.12,21.9726 13.12,37.6872 0,15.711 -4.38,28.27 -13.12,37.684 -8.85,9.512 -20.52,14.277 -35.02,14.277 -14.28,0 -25.84,-4.765 -34.7,-14.277 -8.86,-9.52 -13.28,-21.805 -13.28,-36.856 z m -38.19,0.664 c 0,23.352 8.36,43.223 25.07,59.602 16.71,16.375 37.08,24.57 61.1,24.57 24.13,0 44.6,-8.254 61.42,-24.738 16.6,-16.492 24.9,-36.746 24.9,-60.762 0,-24.238 -8.36,-44.5505 -25.06,-60.9255 -16.83,-16.2695 -37.47,-24.4062 -61.93,-24.4062 -24.24,0 -44.55,8.3008 -60.93,24.9023 -16.37,16.3789 -24.57,36.9649 -24.57,61.7574"
         style="fill:#c41036;fill-opacity:1;fill-rule:nonzero;stroke:none"
         id="path40"
         inkscape:connector-curvature="0" /><path
         d="m 2027.92,194.336 37.52,0 0,-14.941 c 13.06,12.949 27.77,19.425 44.16,19.425 18.81,0 33.48,-5.929 43.99,-17.765 9.08,-10.078 13.62,-26.504 13.62,-49.305 l 0,-99.1133 -37.52,0 0,90.1953 c 0,15.918 -2.22,26.914 -6.64,33 -4.32,6.191 -12.18,9.285 -23.58,9.285 -12.4,0 -21.2,-4.09 -26.39,-12.265 -5.1,-8.075 -7.64,-22.168 -7.64,-42.286 l 0,-77.9293 -37.52,0 0,161.6993"
         style="fill:#c41036;fill-opacity:1;fill-rule:nonzero;stroke:none"
         id="path42"
         inkscape:connector-curvature="0" /><path
         d="m 1800.3,230.332 c 0,-13.504 -10.94,-24.453 -24.44,-24.453 -13.51,0 -24.44,10.949 -24.44,24.453 0,13.496 10.93,24.445 24.44,24.445 13.5,0 24.44,-10.949 24.44,-24.445"
         style="fill:#c41036;fill-opacity:1;fill-rule:nonzero;stroke:none"
         id="path44"
         inkscape:connector-curvature="0" /><path
         d="m 1757.59,32.6367 37.3516,0 0,161.699 -37.3516,0 0,-161.699 z"
         style="fill:#c41036;fill-opacity:1;fill-rule:nonzero;stroke:none"
         id="path46"
         inkscape:connector-curvature="0" /></g></g></svg>